# 3ds Max Wavefront OBJ Exporter v0.97b - (c)2007 guruware
# File Created: 19.03.2018 23:25:58

#
# object Car
#

v  0.0000 0.3716 1.7303
v  0.5195 0.3716 1.7303
v  0.5195 0.3716 2.4152
v  0.0000 0.3716 2.4152
v  0.0000 0.3716 -1.2658
v  0.5195 0.3716 -1.2658
v  0.5195 0.3716 0.8749
v  0.0000 0.3716 0.8749
v  0.0000 0.3716 -1.6812
v  0.5195 0.3716 -1.6812
v  0.5195 1.7294 0.5931
v  0.5195 1.7294 -0.9532
v  0.0000 1.7294 -0.9532
v  0.0000 1.7294 0.5931
v  0.5195 0.6900 2.4152
v  0.5195 1.0582 2.2247
v  0.0000 1.0582 2.2247
v  0.0000 0.6900 2.4152
v  0.8268 0.6900 1.6190
v  0.8268 1.1517 1.1341
v  0.8268 1.0582 2.0466
v  0.8268 0.6900 2.2371
v  0.8268 0.6900 0.9862
v  0.8268 0.6900 -1.3654
v  0.8268 1.1517 -1.4990
v  0.8268 0.7909 -1.6812
v  0.8268 0.6942 -1.9977
v  0.8268 1.7294 -0.9532
v  0.8268 1.7294 0.5931
v  0.5195 0.6942 -2.5001
v  0.5195 1.1517 -2.3049
v  0.8268 1.1517 -2.1943
v  0.8268 0.6942 -2.4230
v  0.0000 0.3716 1.3024
v  0.5195 0.3716 1.3024
v  0.8268 0.7909 1.3024
v  0.5195 1.1517 1.1341
v  0.0000 0.3716 -2.0973
v  0.5195 0.3716 -2.0973
v  0.5195 0.3716 -2.5001
v  0.8268 0.3716 -2.4230
v  0.8268 0.3716 -2.0973
v  0.5195 1.1517 -1.4990
v  0.0000 1.1517 -2.3049
v  0.0000 1.1517 -1.4990
v  0.8268 0.3716 1.7303
v  0.8268 0.3716 2.2371
v  0.8268 0.3716 -1.2658
v  0.8268 0.3716 0.8749
v  0.4134 0.6900 -1.3654
v  0.5195 0.7909 -1.6812
v  0.0000 0.6942 -2.5001
v  0.4134 0.6900 1.6190
v  0.5195 0.7909 1.3024
v  0.0000 1.1517 1.1342
v  0.4134 0.6942 -1.9977
v  0.4134 0.6900 0.9862
v  0.0000 0.3716 -2.5001
v  -0.5195 0.3716 2.4152
v  -0.5195 0.3716 1.7303
v  -0.5195 0.3716 0.8749
v  -0.5195 0.3716 -1.2658
v  -0.5195 0.3716 -1.6812
v  -0.5195 1.7294 0.5931
v  -0.5195 1.7294 -0.9532
v  -0.5195 0.6900 2.4152
v  -0.5195 1.0582 2.2247
v  -0.8268 0.6900 1.6190
v  -0.8268 0.6900 2.2371
v  -0.8268 1.0582 2.0466
v  -0.8268 1.1517 1.1341
v  -0.8268 0.6900 0.9862
v  -0.8268 1.1517 -1.4990
v  -0.8268 0.6900 -1.3654
v  -0.8268 0.7909 -1.6812
v  -0.8268 0.6942 -1.9977
v  -0.8268 1.7294 0.5931
v  -0.8268 1.7294 -0.9532
v  -0.5195 0.6942 -2.5001
v  -0.8268 0.6942 -2.4230
v  -0.8268 1.1517 -2.1943
v  -0.5195 1.1517 -2.3049
v  -0.5195 0.3716 1.3024
v  -0.8268 0.7909 1.3024
v  -0.5195 1.1517 1.1341
v  -0.5195 0.3716 -2.0973
v  -0.8268 0.3716 -2.0973
v  -0.8268 0.3716 -2.4230
v  -0.5195 0.3716 -2.5001
v  -0.5195 1.1517 -1.4990
v  -0.8268 0.3716 2.2371
v  -0.8268 0.3716 1.7303
v  -0.8268 0.3716 -1.2658
v  -0.8268 0.3716 0.8749
v  -0.5195 0.7909 -1.6812
v  -0.4134 0.6900 -1.3654
v  -0.5195 0.7909 1.3024
v  -0.4134 0.6900 1.6190
v  -0.4134 0.6942 -1.9977
v  -0.4134 0.6900 0.9862
v  0.5195 0.5211 0.9389
v  0.5195 0.2203 0.9397
v  0.5195 0.0081 1.1530
v  0.5195 0.7352 1.4519
v  0.5195 0.7344 1.1511
v  0.5195 0.2221 1.6660
v  0.5195 0.5230 1.6652
v  0.5195 0.0088 1.4538
v  0.7951 0.2203 0.9397
v  0.7951 0.0081 1.1530
v  0.7951 0.5211 0.9389
v  0.7951 0.7344 1.1511
v  0.7951 0.7352 1.4519
v  0.7951 0.5230 1.6652
v  0.7951 0.2221 1.6660
v  0.7951 0.0088 1.4538
v  0.7951 0.3716 1.3024
v  -0.5195 0.5211 1.6660
v  -0.5195 0.2203 1.6652
v  -0.5195 0.0081 1.4519
v  -0.5195 0.7352 1.1530
v  -0.5195 0.7344 1.4538
v  -0.5195 0.2221 0.9389
v  -0.5195 0.5230 0.9397
v  -0.5195 0.0088 1.1511
v  -0.7951 0.2203 1.6652
v  -0.7951 0.0081 1.4519
v  -0.7951 0.5211 1.6660
v  -0.7951 0.7344 1.4538
v  -0.7951 0.7352 1.1530
v  -0.7951 0.5230 0.9397
v  -0.7951 0.2221 0.9389
v  -0.7951 0.0088 1.1511
v  -0.7951 0.3716 1.3024
v  0.5195 0.5211 -2.0448
v  0.5195 0.2203 -2.0440
v  0.5195 0.0081 -1.8307
v  0.5195 0.7352 -1.5317
v  0.5195 0.7344 -1.8326
v  0.5195 0.2221 -1.3176
v  0.5195 0.5230 -1.3184
v  0.5195 0.0088 -1.5298
v  0.7951 0.2203 -2.0440
v  0.7951 0.0081 -1.8307
v  0.7951 0.5211 -2.0448
v  0.7951 0.7344 -1.8326
v  0.7951 0.7352 -1.5317
v  0.7951 0.5230 -1.3184
v  0.7951 0.2221 -1.3176
v  0.7951 0.0088 -1.5298
v  0.7951 0.3716 -1.6812
v  -0.5195 0.5211 -1.3176
v  -0.5195 0.2203 -1.3184
v  -0.5195 0.0081 -1.5317
v  -0.5195 0.7352 -1.8307
v  -0.5195 0.7344 -1.5298
v  -0.5195 0.2221 -2.0448
v  -0.5195 0.5230 -2.0440
v  -0.5195 0.0088 -1.8326
v  -0.7951 0.2203 -1.3184
v  -0.7951 0.0081 -1.5317
v  -0.7951 0.5211 -1.3176
v  -0.7951 0.7344 -1.5298
v  -0.7951 0.7352 -1.8307
v  -0.7951 0.5230 -2.0440
v  -0.7951 0.2221 -2.0448
v  -0.7951 0.0088 -1.8326
v  -0.7951 0.3716 -1.6812
# 168 vertices

vn 0.0000 -1.0000 -0.0000
vn 0.2207 -0.9181 -0.3293
vn 0.1967 -0.6531 0.7313
vn 0.0000 -0.7071 0.7071
vn 0.0000 -1.0000 0.0000
vn 0.2283 -0.9136 -0.3366
vn 0.2207 -0.9181 0.3293
vn 0.7071 -0.7071 0.0000
vn 0.0000 0.9175 0.3977
vn 0.0000 0.9184 -0.3957
vn 0.2456 0.2224 0.9435
vn 0.1703 0.7889 0.5904
vn 0.0000 0.8312 0.5560
vn 0.0000 0.2364 0.9716
vn 0.8227 -0.4075 -0.3963
vn 0.7951 0.5434 0.2693
vn 0.7035 0.6398 0.3094
vn 0.8296 0.1429 0.5397
vn 0.8226 -0.4075 0.3965
vn 0.8270 -0.3963 -0.3988
vn 0.8079 0.5412 -0.2332
vn -0.6457 -0.7636 -0.0049
vn 0.8291 -0.3959 0.3948
vn 0.6279 0.7147 -0.3080
vn 0.6276 0.7143 0.3097
vn 0.1186 0.1960 -0.9734
vn 0.1066 0.8051 -0.5834
vn 0.6621 0.6758 -0.3238
vn 0.7441 0.1591 -0.6488
vn -0.6447 -0.7644 0.0001
vn 0.0000 0.8996 0.4367
vn 0.2293 -0.9133 0.3365
vn 0.0899 -0.6805 -0.7272
vn 0.6358 -0.5914 -0.4959
vn 0.5947 -0.6469 0.4773
vn 0.0000 0.8344 -0.5512
vn 0.5971 -0.6541 -0.4644
vn 0.6865 -0.6101 0.3955
vn 0.5950 -0.6476 -0.4760
vn 0.5971 -0.6541 0.4643
vn 0.8347 -0.3886 -0.3903
vn 0.5608 -0.8279 -0.0059
vn 0.0000 0.2003 -0.9797
vn 0.8394 -0.3905 -0.3781
vn 0.5600 -0.8285 0.0001
vn 0.0000 0.8997 0.4365
vn 0.8312 -0.3949 0.3915
vn 0.8395 -0.3904 0.3780
vn 0.0000 -0.7071 -0.7071
vn -0.1967 -0.6531 0.7313
vn -0.2207 -0.9181 -0.3293
vn -0.2207 -0.9181 0.3293
vn -0.2283 -0.9136 -0.3366
vn -0.7071 -0.7071 0.0000
vn -0.0000 0.9184 -0.3957
vn -0.2456 0.2224 0.9435
vn -0.1703 0.7889 0.5904
vn -0.8227 -0.4075 -0.3963
vn -0.8296 0.1429 0.5397
vn -0.7035 0.6398 0.3094
vn -0.7951 0.5434 0.2693
vn -0.8226 -0.4075 0.3965
vn -0.8079 0.5412 -0.2332
vn -0.8270 -0.3963 -0.3988
vn 0.6457 -0.7636 -0.0049
vn -0.8291 -0.3959 0.3948
vn -0.6276 0.7143 0.3097
vn -0.6279 0.7147 -0.3080
vn -0.1186 0.1960 -0.9734
vn -0.7441 0.1591 -0.6488
vn -0.6621 0.6758 -0.3238
vn -0.1066 0.8051 -0.5834
vn 0.6447 -0.7644 0.0001
vn -0.0000 0.8996 0.4367
vn -0.2293 -0.9133 0.3365
vn -0.5947 -0.6469 0.4773
vn -0.6358 -0.5914 -0.4959
vn -0.0899 -0.6805 -0.7272
vn -0.6865 -0.6101 0.3955
vn -0.5971 -0.6541 -0.4644
vn -0.5950 -0.6476 -0.4760
vn -0.5971 -0.6541 0.4643
vn -0.5608 -0.8279 -0.0059
vn -0.8347 -0.3886 -0.3903
vn -0.5600 -0.8285 0.0001
vn -0.8394 -0.3905 -0.3781
vn -0.8312 -0.3949 0.3915
vn -0.8395 -0.3904 0.3780
vn -1.0000 -0.0000 -0.0000
vn -0.6303 0.2952 -0.7181
vn -0.6303 -0.2990 -0.7165
vn -0.6303 -0.7181 -0.2952
vn -0.6303 0.7181 0.2952
vn -0.6303 0.7165 -0.2990
vn -0.6303 -0.2952 0.7181
vn -0.6303 0.2990 0.7165
vn -0.6303 -0.7165 0.2990
vn 0.6303 -0.2990 -0.7165
vn 0.6303 -0.7181 -0.2952
vn 0.6303 0.2952 -0.7181
vn 0.6303 0.7165 -0.2990
vn 0.6303 0.7181 0.2952
vn 0.6303 0.2990 0.7165
vn 0.6303 -0.2952 0.7181
vn 0.6303 -0.7165 0.2990
vn 1.0000 0.0000 0.0000
vn 1.0000 -0.0000 0.0000
vn 0.6303 0.2952 0.7181
vn 0.6303 -0.2990 0.7165
vn 0.6303 -0.7181 0.2952
vn 0.6303 0.7181 -0.2952
vn 0.6303 0.7165 0.2990
vn 0.6303 -0.2952 -0.7181
vn 0.6303 0.2990 -0.7165
vn 0.6303 -0.7165 -0.2990
vn -0.6303 -0.2990 0.7165
vn -0.6303 -0.7181 0.2952
vn -0.6303 0.2952 0.7181
vn -0.6303 0.7165 0.2990
vn -0.6303 0.7181 -0.2952
vn -0.6303 0.2990 -0.7165
vn -0.6303 -0.2952 -0.7181
vn -0.6303 -0.7165 -0.2990
vn -1.0000 0.0000 -0.0000
# 124 vertex normals

vt 0.6951 0.6182 0.0000
vt 0.7431 0.5710 0.0000
vt 0.8052 0.6349 -0.0000
vt 0.7567 0.6805 0.0000
vt 0.4216 0.3415 0.0000
vt 0.4696 0.2940 0.0000
vt 0.6652 0.4920 0.0000
vt 0.6172 0.5394 0.0000
vt 0.3837 0.3032 0.0000
vt 0.4316 0.2557 0.0000
vt 0.2353 0.6264 0.0000
vt 0.3751 0.7673 0.0000
vt 0.3277 0.8142 0.0000
vt 0.1880 0.6733 0.0000
vt 0.8302 0.6661 0.0000
vt 0.8628 0.7013 0.0000
vt 0.8197 0.7442 0.0000
vt 0.7843 0.7085 0.0000
vt 0.7911 0.5039 0.0000
vt 0.7897 0.4167 0.0000
vt 0.8643 0.5100 0.0000
vt 0.8474 0.5614 0.0000
vt 0.7334 0.4451 0.0000
vt 0.5183 0.2275 0.0000
vt 0.5488 0.1729 0.0000
vt 0.4987 0.1891 0.0000
vt 0.4607 0.1687 0.0000
vt 0.2670 0.4971 0.0000
vt 0.5050 0.7370 0.0000
vt 0.4030 0.7395 0.0000
vt 0.2633 0.5986 0.0000
vt 0.3260 0.1528 0.0000
vt 0.2826 0.1102 0.0000
vt 0.3042 0.0757 0.0000
vt 0.3522 0.1217 0.0000
vt 0.6562 0.5788 0.0000
vt 0.7042 0.5315 0.0000
vt 0.7716 0.4652 0.0000
vt 0.9623 0.7915 0.0000
vt 0.9024 0.6846 0.0000
vt 0.9884 0.7626 0.0000
vt 0.3459 0.2649 0.0000
vt 0.3936 0.2173 0.0000
vt 0.3564 0.1804 -0.0000
vt 0.3918 0.1591 0.0000
vt 0.4218 0.1891 0.0000
vt 0.2151 0.0349 0.0000
vt 0.2374 0.1551 0.0000
vt 0.1649 0.0818 0.0000
vt 0.4216 0.1294 0.0000
vt 0.4850 0.1085 0.0000
vt 0.7717 0.5432 0.0000
vt 0.8177 0.5904 0.0000
vt 0.4980 0.2659 0.0000
vt 0.6937 0.4639 0.0000
vt 0.8771 0.3589 0.0000
vt 0.9096 0.3314 0.0000
vt 0.9439 0.3719 0.0000
vt 0.9026 0.3890 0.0000
vt 0.8681 0.6427 0.0000
vt 0.2806 0.1989 0.0000
vt 0.8967 0.6429 0.0000
vt 0.8676 0.6117 0.0000
vt 0.9065 0.5756 0.0000
vt 0.9255 0.6161 0.0000
vt 0.9152 0.8408 0.0000
vt 0.8447 0.3863 0.0000
vt 0.8790 0.4268 0.0000
vt 0.9257 0.6741 0.0000
vt 0.9645 0.6380 0.0000
vt 0.3096 0.2281 0.0000
vt 0.2447 0.0086 0.0000
vt 0.3837 0.1494 0.0000
vt 0.8371 0.4444 -0.0000
vt 0.8117 0.4143 0.0000
vt 0.1472 0.3146 0.0000
vt 0.1046 0.3280 0.0000
vt 0.1034 0.2742 0.0000
vt 0.1567 0.2702 -0.0000
vt 0.0616 0.3160 0.0000
vt 0.0501 0.2725 0.0000
vt 0.9423 0.3037 -0.0000
vt 0.9677 0.3338 0.0000
vt 0.9840 0.6789 -0.0000
vt 0.9552 0.7058 0.0000
vt 0.1405 0.5389 0.0000
vt 0.0977 0.5519 0.0000
vt 0.0977 0.4980 0.0000
vt 0.1525 0.4951 -0.0000
vt 0.0548 0.5389 0.0000
vt 0.0428 0.4951 -0.0000
vt 0.8381 0.5800 0.0000
vt 0.8670 0.5532 0.0000
vt 0.8440 0.6071 0.0000
vt 0.1918 0.5265 0.0000
vt 0.1638 0.5543 0.0000
vt 0.1164 0.6012 -0.0000
vt 0.3995 0.8866 0.0000
vt 0.4469 0.8397 -0.0000
vt 0.4749 0.8119 0.0000
vt 0.7105 0.7284 0.0000
vt 0.6474 0.6657 0.0000
vt 0.5693 0.5868 0.0000
vt 0.3736 0.3889 0.0000
vt 0.3357 0.3505 0.0000
vt 0.1406 0.7203 0.0000
vt 0.2804 0.8612 0.0000
vt 0.7414 0.7538 0.0000
vt 0.7763 0.7868 0.0000
vt 0.5797 0.7128 0.0000
vt 0.6365 0.7698 0.0000
vt 0.5850 0.7861 0.0000
vt 0.4925 0.7104 0.0000
vt 0.5216 0.6544 0.0000
vt 0.2516 0.4667 0.0000
vt 0.3066 0.4369 0.0000
vt 0.2684 0.4168 0.0000
vt 0.2484 0.3786 0.0000
vt 0.0111 0.7509 0.0000
vt 0.1126 0.7480 0.0000
vt 0.2524 0.8889 0.0000
vt 0.2491 0.9909 0.0000
vt 0.2341 0.2437 0.0000
vt 0.2026 0.2695 0.0000
vt 0.1572 0.2210 0.0000
vt 0.1919 0.1997 0.0000
vt 0.6083 0.6263 0.0000
vt 0.5413 0.6929 0.0000
vt 0.8653 0.8874 0.0000
vt 0.8361 0.9132 0.0000
vt 0.7591 0.8262 0.0000
vt 0.2978 0.3120 0.0000
vt 0.2692 0.3399 0.0000
vt 0.2396 0.3096 0.0000
vt 0.2613 0.2744 0.0000
vt 0.1174 0.1314 0.0000
vt 0.1879 0.4022 0.0000
vt 0.2095 0.3390 0.0000
vt 0.6659 0.7404 0.0000
vt 0.6192 0.6938 0.0000
vt 0.3452 0.4170 0.0000
vt 0.5409 0.6150 0.0000
vt 0.5384 0.9463 0.0000
vt 0.5384 0.9068 0.0000
vt 0.5809 0.8932 0.0000
vt 0.5809 0.9462 0.0000
vt 0.7176 0.7915 0.0000
vt 0.8961 0.5320 0.0000
vt 0.9270 0.5074 0.0000
vt 0.9642 0.5322 0.0000
vt 0.9227 0.5653 0.0000
vt 0.4959 0.9463 0.0000
vt 0.4959 0.8932 0.0000
vt 0.8696 0.4987 0.0000
vt 0.9111 0.4656 0.0000
vt 0.0908 0.1608 0.0000
vt 0.2300 0.3013 0.0000
vt 0.4526 0.9463 0.0000
vt 0.4526 0.9069 -0.0000
vt 0.0567 0.3901 0.0000
vt 0.0472 0.3457 -0.0000
vt 0.1004 0.3497 0.0000
vt 0.0993 0.4035 0.0000
vt 0.1537 0.3481 0.0000
vt 0.1423 0.3915 0.0000
vt 0.6237 0.9068 0.0000
vt 0.6238 0.9462 -0.0000
vt 0.8426 0.4648 0.0000
vt 0.8734 0.4403 -0.0000
vt 0.0583 0.4655 0.0000
vt 0.0463 0.4217 -0.0000
vt 0.1011 0.4246 0.0000
vt 0.1011 0.4784 0.0000
vt 0.1560 0.4217 -0.0000
vt 0.1440 0.4655 0.0000
vt 0.9806 0.5746 0.0000
vt 0.9497 0.5992 0.0000
vt 0.6823 0.7669 0.0000
vt 0.0411 0.6759 0.0000
vt 0.0691 0.6482 0.0000
vt 0.3522 0.9336 0.0000
vt 0.3242 0.9614 0.0000
vt 0.9316 0.1586 0.0939
vt 0.9509 0.2052 -0.0939
vt 0.9123 0.2052 0.0939
vt 0.8850 0.1779 0.0939
vt 0.9782 0.1393 0.0939
vt 0.9782 0.1779 0.0939
vt 0.9123 0.1119 -0.0939
vt 0.9509 0.1119 0.0939
vt 0.8850 0.1393 0.0939
vt 0.6915 0.1331 0.0000
vt 0.6649 0.1051 0.0000
vt 0.6905 0.0808 0.0000
vt 0.7171 0.1088 0.0000
vt 0.8776 0.3291 0.0000
vt 0.8510 0.3011 0.0000
vt 0.8767 0.2768 0.0000
vt 0.9032 0.3048 0.0000
vt 0.8244 0.2731 0.0000
vt 0.8501 0.2488 2.8219
vt 0.7978 0.2451 0.0000
vt 0.8235 0.2208 0.0000
vt 0.7712 0.2171 0.0000
vt 0.7969 0.1928 0.0000
vt 0.7447 0.1891 0.0000
vt 0.7703 0.1648 0.0000
vt 0.7181 0.1611 0.0000
vt 0.7437 0.1368 -2.8219
vt 0.5861 0.1547 0.0000
vt 0.5476 0.1517 0.0000
vt 0.5704 0.1067 0.0000
vt 0.6154 0.1296 0.0000
vt 0.5225 0.1224 0.8875
vt 0.5254 0.0839 0.0000
vt 0.5547 0.0588 0.0000
vt 0.5932 0.0617 0.0000
vt 0.6184 0.0911 -0.8875
vt 0.6557 0.8445 0.0939
vt 0.6364 0.7979 -0.0939
vt 0.6751 0.7979 0.0939
vt 0.7024 0.8252 0.0939
vt 0.6091 0.8638 0.0939
vt 0.6091 0.8252 0.0939
vt 0.6751 0.8911 -0.0939
vt 0.6364 0.8911 0.0939
vt 0.7024 0.8638 0.0939
vt 0.7478 0.3411 0.0000
vt 0.7212 0.3131 0.0000
vt 0.7468 0.2888 0.0000
vt 0.7734 0.3168 -2.8218
vt 0.6946 0.2851 0.0000
vt 0.7202 0.2608 0.0000
vt 0.6680 0.2571 0.0000
vt 0.6936 0.2328 0.0000
vt 0.6414 0.2291 0.0000
vt 0.6670 0.2048 2.8218
vt 0.6148 0.2012 0.0000
vt 0.6404 0.1768 0.0000
vt 0.5882 0.1732 0.0000
vt 0.6139 0.1488 0.0000
vt 0.8010 0.3971 0.0000
vt 0.7744 0.3691 0.0000
vt 0.8000 0.3448 0.0000
vt 0.8266 0.3728 0.0000
vt 0.9059 0.8624 0.0000
vt 0.9444 0.8594 0.0000
vt 0.9287 0.9074 0.0000
vt 0.8808 0.8917 -0.8875
vt 0.9737 0.8845 0.0000
vt 0.9767 0.9230 0.8875
vt 0.9516 0.9524 0.0000
vt 0.9131 0.9553 0.0000
vt 0.8837 0.9302 0.0000
vt 0.7479 0.8979 0.0000
vt 0.7786 0.9379 0.0703
vt 0.7413 0.9480 0.0000
vt 0.7079 0.9287 0.0000
vt 0.7879 0.8672 0.0000
vt 0.7979 0.9045 0.0000
vt 0.7171 0.8579 0.0000
vt 0.7544 0.8479 0.0000
vt 0.6978 0.8914 -0.0703
vt 0.6483 0.1155 0.0000
vt 0.6750 0.1434 0.0000
vt 0.6494 0.1679 0.0000
vt 0.6227 0.1400 0.0000
vt 0.7017 0.1713 0.1989
vt 0.6761 0.1958 0.0000
vt 0.7284 0.1992 0.0000
vt 0.7028 0.2237 0.0000
vt 0.7551 0.2271 0.0000
vt 0.7295 0.2516 0.0000
vt 0.7818 0.2550 0.0000
vt 0.7562 0.2795 0.0000
vt 0.8085 0.2829 0.0000
vt 0.7829 0.3074 0.0000
vt 0.8352 0.3108 -0.1989
vt 0.8096 0.3352 0.0000
vt 0.8619 0.3387 0.0000
vt 0.8363 0.3631 0.0000
vt 0.3477 0.1053 0.0126
vt 0.3211 0.0773 -0.0126
vt 0.3682 0.0592 0.0126
vt 0.3863 0.1062 0.0126
vt 0.3221 0.0387 0.0126
vt 0.3500 0.0121 0.0126
vt 0.3886 0.0130 0.0126
vt 0.4152 0.0410 -0.0126
vt 0.4143 0.0796 0.0126
vt 0.5380 0.8438 0.0000
vt 0.5041 0.8065 0.0000
vt 0.5404 0.7934 0.0000
vt 0.5753 0.8099 0.0000
vt 0.5007 0.8777 0.0000
vt 0.4876 0.8414 0.0000
vt 0.5719 0.8811 0.0000
vt 0.5356 0.8942 0.0000
vt 0.5884 0.8462 0.0000
vt 0.8350 0.2059 0.0000
vt 0.8090 0.1773 0.0000
vt 0.8352 0.1535 0.0000
vt 0.8612 0.1821 0.0000
vt 0.7830 0.1487 0.0000
vt 0.8092 0.1249 0.0000
vt 0.7571 0.1202 0.0000
vt 0.7833 0.0964 0.0000
vt 0.7311 0.0916 0.0000
vt 0.7573 0.0678 0.0000
vt 0.7051 0.0630 0.0000
vt 0.7313 0.0392 0.0000
vt 0.9129 0.2916 0.0000
vt 0.8869 0.2630 0.0000
vt 0.9131 0.2392 0.0000
vt 0.9391 0.2678 0.0000
vt 0.8610 0.2345 0.0000
vt 0.8871 0.2107 0.0000
vt 0.4291 0.0236 0.0000
vt 0.4648 0.0089 0.0000
vt 0.4647 0.0594 0.0000
vt 0.4143 0.0593 0.0000
vt 0.5004 0.0237 0.0000
vt 0.5152 0.0594 0.0000
vt 0.5003 0.0951 0.0000
vt 0.4646 0.1098 0.0000
vt 0.4290 0.0950 0.0000
# 326 texture coords

o Car
g Car
s 2
f 1/1/1 2/2/2 3/3/3 4/4/4 
f 5/5/5 6/6/6 7/7/7 8/8/5 
f 9/9/5 10/10/8 6/6/6 5/5/5 
s 4
f 11/11/9 12/12/10 13/13/10 14/14/9 
s 8
f 15/15/11 16/16/12 17/17/13 18/18/14 
s 16
f 19/19/15 20/20/16 21/21/17 22/22/18 
f 23/23/19 24/24/20 25/25/21 20/20/16 
f 26/26/22 27/27/23 25/25/21 24/24/20 
f 20/28/16 25/29/21 28/30/24 29/31/25 
s 32
f 30/32/26 31/33/27 32/34/28 33/35/29 
s 2
f 34/36/5 35/37/8 2/2/2 1/1/1 
s 16
f 36/38/30 23/23/19 20/20/16 19/19/15 
s off
f 37/39/31 16/16/12 21/40/17 20/41/16 
s 2
f 38/42/1 39/43/32 10/10/8 9/9/5 
f 8/8/5 7/7/7 35/37/8 34/36/5 
s off
f 39/43/32 40/44/33 41/45/34 42/46/35 
f 43/47/10 31/33/27 44/48/36 45/49/10 
f 25/25/21 27/27/23 33/50/29 32/51/28 
s 2
f 2/2/2 46/52/37 47/53/38 3/3/3 
f 48/54/39 49/55/40 7/7/7 6/6/6 
f 26/56/22 24/57/20 50/58/41 51/59/42 
s 4
f 29/31/25 28/30/24 12/12/10 11/11/9 
s 8
f 22/60/18 21/40/17 16/16/12 15/15/11 
s 32
f 52/61/43 44/48/36 31/33/27 30/32/26 
s 2
f 36/62/30 19/63/15 53/64/44 54/65/45 
s off
f 55/66/46 17/17/13 16/16/12 37/39/31 
s 2
f 27/67/23 26/56/22 51/59/42 56/68/47 
f 23/69/19 36/62/30 54/65/45 57/70/48 
s off
f 38/42/1 58/71/49 40/44/33 39/43/32 
f 25/72/21 32/34/28 31/33/27 43/47/10 
f 52/61/43 30/32/26 40/44/33 58/71/49 
f 30/32/26 33/35/29 41/73/34 40/44/33 
f 33/50/29 27/27/23 42/46/35 41/45/34 
f 27/67/23 56/68/47 39/74/32 42/75/35 
f 56/76/47 51/77/42 10/78/8 39/79/32 
f 51/77/42 50/80/41 6/81/6 10/78/8 
f 50/58/41 24/57/20 48/82/39 6/83/6 
f 24/24/20 23/23/19 49/55/40 48/54/39 
f 23/69/19 57/70/48 7/84/7 49/85/40 
f 57/86/48 54/87/45 35/88/8 7/89/7 
f 54/87/45 53/90/44 2/91/2 35/88/8 
f 53/64/44 19/63/15 46/92/37 2/93/2 
f 19/19/15 22/22/18 47/53/38 46/52/37 
f 22/60/18 15/15/11 3/3/3 47/94/38 
f 15/15/11 18/18/14 4/4/4 3/3/3 
s 8
f 20/95/16 29/31/25 11/11/9 37/96/31 
f 37/96/31 11/11/9 14/14/9 55/97/46 
f 45/98/10 13/13/10 12/12/10 43/99/10 
f 43/99/10 12/12/10 28/30/24 25/100/21 
s 2
f 1/1/1 4/4/4 59/101/50 60/102/51 
f 5/5/5 8/8/5 61/103/52 62/104/53 
f 9/9/5 5/5/5 62/104/53 63/105/54 
s 4
f 64/106/9 14/14/9 13/13/10 65/107/55 
s 8
f 66/108/56 18/18/14 17/17/13 67/109/57 
s 16
f 68/110/58 69/111/59 70/112/60 71/113/61 
f 72/114/62 71/113/61 73/115/63 74/116/64 
f 75/117/65 74/116/64 73/115/63 76/118/66 
f 71/119/61 77/120/67 78/121/68 73/122/63 
s 32
f 79/123/69 80/124/70 81/125/71 82/126/72 
s 2
f 34/36/5 1/1/1 60/102/51 83/127/54 
s 16
f 84/128/73 68/110/58 71/113/61 72/114/62 
s off
f 85/129/74 71/130/61 70/131/60 67/109/57 
s 2
f 38/42/1 9/9/5 63/105/54 86/132/75 
f 8/8/5 34/36/5 83/127/54 61/103/52 
s off
f 86/132/75 87/133/76 88/134/77 89/135/78 
f 90/136/55 45/49/10 44/48/36 82/126/72 
f 73/115/63 81/137/71 80/138/70 76/118/66 
s 2
f 60/102/51 59/101/50 91/139/79 92/140/80 
f 93/141/81 62/104/53 61/103/52 94/142/82 
f 75/143/65 95/144/83 96/145/84 74/146/64 
s 4
f 77/120/67 64/106/9 65/107/55 78/121/68 
s 8
f 69/147/59 66/108/56 67/109/57 70/131/60 
s 32
f 52/61/43 79/123/69 82/126/72 44/48/36 
s 2
f 84/148/73 97/149/85 98/150/86 68/151/58 
s off
f 55/66/46 85/129/74 67/109/57 17/17/13 
s 2
f 76/152/66 99/153/87 95/144/83 75/143/65 
f 72/154/62 100/155/88 97/149/85 84/148/73 
s off
f 38/42/1 86/132/75 89/135/78 58/71/49 
f 73/156/63 90/136/55 82/126/72 81/125/71 
f 52/61/43 58/71/49 89/135/78 79/123/69 
f 79/123/69 89/135/78 88/157/77 80/124/70 
f 80/138/70 88/134/77 87/133/76 76/118/66 
f 76/152/66 87/158/76 86/159/75 99/153/87 
f 99/160/87 86/161/75 63/162/54 95/163/83 
f 95/163/83 63/162/54 62/164/53 96/165/84 
f 96/145/84 62/166/53 93/167/81 74/146/64 
f 74/116/64 93/141/81 94/142/82 72/114/62 
f 72/154/62 94/168/82 61/169/52 100/155/88 
f 100/170/88 61/171/52 83/172/54 97/173/85 
f 97/173/85 83/172/54 60/174/51 98/175/86 
f 98/150/86 60/176/51 92/177/80 68/151/58 
f 68/110/58 92/140/80 91/139/79 69/111/59 
f 69/147/59 91/178/79 59/101/50 66/108/56 
f 66/108/56 59/101/50 4/4/4 18/18/14 
s 8
f 71/179/61 85/180/74 64/106/9 77/120/67 
f 85/180/74 55/97/46 14/14/9 64/106/9 
f 45/98/10 90/181/55 65/107/55 13/13/10 
f 90/181/55 73/182/63 78/121/68 65/107/55 
s 1
f 35/183/89 101/184/90 102/185/91 103/186/92 
f 35/183/89 104/187/93 105/188/94 101/184/90 
f 35/183/89 106/189/95 107/190/96 104/187/93 
f 35/183/89 103/186/92 108/191/97 106/189/95 
s 8
f 103/192/92 102/193/91 109/194/98 110/195/99 
f 102/196/91 101/197/90 111/198/100 109/199/98 
f 101/197/90 105/200/94 112/201/101 111/198/100 
f 105/200/94 104/202/93 113/203/102 112/201/101 
f 104/202/93 107/204/96 114/205/103 113/203/102 
f 107/204/96 106/206/95 115/207/104 114/205/103 
f 106/206/95 108/208/97 116/209/105 115/207/104 
f 108/208/97 103/192/92 110/195/99 116/209/105 
s 1
f 109/210/98 111/211/100 117/212/106 110/213/99 
f 112/214/101 113/215/102 117/212/106 111/211/100 
f 114/216/103 115/217/104 117/212/106 113/215/102 
f 116/218/105 110/213/99 117/212/106 115/217/104 
f 83/219/107 118/220/108 119/221/109 120/222/110 
f 83/219/107 121/223/111 122/224/112 118/220/108 
f 83/219/107 123/225/113 124/226/114 121/223/111 
f 83/219/107 120/222/110 125/227/115 123/225/113 
s 8
f 120/228/110 119/229/109 126/230/116 127/231/117 
f 119/229/109 118/232/108 128/233/118 126/230/116 
f 118/232/108 122/234/112 129/235/119 128/233/118 
f 122/234/112 121/236/111 130/237/120 129/235/119 
f 121/236/111 124/238/114 131/239/121 130/237/120 
f 124/238/114 123/240/113 132/241/122 131/239/121 
f 123/242/113 125/243/115 133/244/123 132/245/122 
f 125/243/115 120/228/110 127/231/117 133/244/123 
s 1
f 126/246/116 128/247/118 134/248/124 127/249/117 
f 129/250/119 130/251/120 134/248/124 128/247/118 
f 131/252/121 132/253/122 134/248/124 130/251/120 
f 133/254/123 127/249/117 134/248/124 132/253/122 
f 10/255/89 135/256/90 136/257/91 137/258/92 
f 10/255/89 138/259/93 139/260/94 135/256/90 
f 10/255/89 140/261/95 141/262/96 138/259/93 
f 10/255/89 137/258/92 142/263/97 140/261/95 
s 8
f 137/264/92 136/265/91 143/266/98 144/267/99 
f 136/265/91 135/268/90 145/269/100 143/266/98 
f 135/268/90 139/270/94 146/271/101 145/269/100 
f 139/270/94 138/272/93 147/273/102 146/271/101 
f 138/272/93 141/274/96 148/275/103 147/273/102 
f 141/274/96 140/276/95 149/277/104 148/275/103 
f 140/276/95 142/278/97 150/279/105 149/277/104 
f 142/278/97 137/280/92 144/281/99 150/279/105 
s 1
f 143/282/98 145/283/100 151/284/106 144/285/99 
f 146/286/101 147/287/102 151/284/106 145/283/100 
f 148/288/103 149/289/104 151/284/106 147/287/102 
f 150/290/105 144/285/99 151/284/106 149/289/104 
f 63/291/107 152/292/108 153/293/109 154/294/110 
f 63/291/107 155/295/111 156/296/112 152/292/108 
f 63/291/107 157/297/113 158/298/114 155/295/111 
f 63/291/107 154/294/110 159/299/115 157/297/113 
s 8
f 154/300/110 153/301/109 160/302/116 161/303/117 
f 153/301/109 152/304/108 162/305/118 160/302/116 
f 152/304/108 156/306/112 163/307/119 162/305/118 
f 156/306/112 155/308/111 164/309/120 163/307/119 
f 155/308/111 158/310/114 165/311/121 164/309/120 
f 158/312/114 157/313/113 166/314/122 165/315/121 
f 157/313/113 159/316/115 167/317/123 166/314/122 
f 159/316/115 154/300/110 161/303/117 167/317/123 
s 1
f 160/318/116 162/319/118 168/320/124 161/321/117 
f 163/322/119 164/323/120 168/320/124 162/319/118 
f 165/324/121 166/325/122 168/320/124 164/323/120 
f 167/326/123 161/321/117 168/320/124 166/325/122 
# 162 polygons

