# 3ds Max Wavefront OBJ Exporter v0.97b - (c)2007 guruware
# File Created: 28.01.2018 18:32:18

#
# object StunRing_001
#

v  0.1736 0.0000 -0.0000
v  0.1603 0.0000 -0.0664
v  0.1603 0.1082 -0.0664
v  0.1736 0.1082 -0.0000
v  0.1227 0.0000 -0.1227
v  0.1227 0.1082 -0.1227
v  0.0664 0.0000 -0.1603
v  0.0664 0.1082 -0.1603
v  -0.0000 0.0000 -0.1736
v  -0.0000 0.1082 -0.1736
v  -0.0664 0.0000 -0.1603
v  -0.0664 0.1082 -0.1603
v  -0.1227 0.0000 -0.1227
v  -0.1227 0.1082 -0.1227
v  -0.1603 0.0000 -0.0664
v  -0.1603 0.1082 -0.0664
v  -0.1736 0.0000 -0.0000
v  -0.1736 0.1082 -0.0000
v  -0.1603 0.0000 0.0664
v  -0.1603 0.1082 0.0664
v  -0.1227 0.0000 0.1227
v  -0.1227 0.1082 0.1227
v  -0.0664 0.0000 0.1603
v  -0.0664 0.1082 0.1603
v  0.0000 0.0000 0.1736
v  0.0000 0.1082 0.1736
v  0.0664 0.0000 0.1603
v  0.0664 0.1082 0.1603
v  0.1227 0.0000 0.1227
v  0.1227 0.1082 0.1227
v  0.1603 0.0000 0.0664
v  0.1603 0.1082 0.0664
# 32 vertices

vn 1.0000 0.0000 -0.0000
vn 0.9239 0.0000 -0.3827
vn 0.7071 0.0000 -0.7071
vn 0.3827 0.0000 -0.9239
vn 0.0000 0.0000 -1.0000
vn -0.0000 0.0000 -1.0000
vn -0.3827 0.0000 -0.9239
vn -0.7071 0.0000 -0.7071
vn -0.9239 0.0000 -0.3827
vn -1.0000 0.0000 -0.0000
vn -0.9239 0.0000 0.3827
vn -0.7071 0.0000 0.7071
vn -0.3827 0.0000 0.9239
vn -0.0000 0.0000 1.0000
vn 0.0000 0.0000 1.0000
vn 0.3827 0.0000 0.9239
vn 0.7071 0.0000 0.7071
vn 0.9239 0.0000 0.3827
# 18 vertex normals

vt 0.0020 0.2072 0.0000
vt 0.1265 0.2072 0.0000
vt 0.1265 0.4060 0.0000
vt 0.0020 0.4060 0.0000
vt 0.2510 0.2072 0.0000
vt 0.2510 0.4060 0.0000
vt 0.3755 0.2072 0.0000
vt 0.3755 0.4060 0.0000
vt 0.5000 0.2072 0.0000
vt 0.5000 0.4060 0.0000
vt 0.6245 0.2072 0.0000
vt 0.6245 0.4060 0.0000
vt 0.7490 0.2072 0.0000
vt 0.7490 0.4060 0.0000
vt 0.8735 0.2072 0.0000
vt 0.8735 0.4060 0.0000
vt 0.9980 0.2072 0.0000
vt 0.9980 0.4060 0.0000
vt 0.0020 0.0020 0.0000
vt 0.1265 0.0020 0.0000
vt 0.1265 0.2009 0.0000
vt 0.0020 0.2009 0.0000
vt 0.2510 0.0020 0.0000
vt 0.2510 0.2009 0.0000
vt 0.3755 0.0020 0.0000
vt 0.3755 0.2009 0.0000
vt 0.5000 0.0020 0.0000
vt 0.5000 0.2009 0.0000
vt 0.6245 0.0020 0.0000
vt 0.6245 0.2009 0.0000
vt 0.7490 0.0020 0.0000
vt 0.7490 0.2009 0.0000
vt 0.8735 0.0020 0.0000
vt 0.8735 0.2009 0.0000
vt 0.9980 0.0020 0.0000
vt 0.9980 0.2009 0.0000
# 36 texture coords

g StunRing_001
s 8
f 1/1/1 2/2/2 3/3/2 
f 3/3/2 4/4/1 1/1/1 
f 2/2/2 5/5/3 6/6/3 
f 6/6/3 3/3/2 2/2/2 
f 5/5/3 7/7/4 8/8/4 
f 8/8/4 6/6/3 5/5/3 
f 7/7/4 9/9/5 10/10/6 
f 10/10/6 8/8/4 7/7/4 
f 9/9/5 11/11/7 12/12/7 
f 12/12/7 10/10/6 9/9/5 
f 11/11/7 13/13/8 14/14/8 
f 14/14/8 12/12/7 11/11/7 
f 13/13/8 15/15/9 16/16/9 
f 16/16/9 14/14/8 13/13/8 
f 15/15/9 17/17/10 18/18/10 
f 18/18/10 16/16/9 15/15/9 
f 17/19/10 19/20/11 20/21/11 
f 20/21/11 18/22/10 17/19/10 
f 19/20/11 21/23/12 22/24/12 
f 22/24/12 20/21/11 19/20/11 
f 21/23/12 23/25/13 24/26/13 
f 24/26/13 22/24/12 21/23/12 
f 23/25/13 25/27/14 26/28/15 
f 26/28/15 24/26/13 23/25/13 
f 25/27/14 27/29/16 28/30/16 
f 28/30/16 26/28/15 25/27/14 
f 27/29/16 29/31/17 30/32/17 
f 30/32/17 28/30/16 27/29/16 
f 29/31/17 31/33/18 32/34/18 
f 32/34/18 30/32/17 29/31/17 
f 31/33/18 1/35/1 4/36/1 
f 4/36/1 32/34/18 31/33/18 
# 32 faces

