# 3ds Max Wavefront OBJ Exporter v0.97b - (c)2007 guruware
# File Created: 27.01.2018 16:11:29

#
# object FeatherGeo_v001
#

v  -0.1071 -0.2516 0.0047
v  -0.0225 -0.1383 0.0047
v  0.0011 -0.1490 -0.0404
v  -0.0901 -0.2712 -0.0404
v  0.0076 -0.0000 0.0047
v  0.0334 -0.0000 -0.0404
v  -0.0225 0.1383 0.0047
v  0.0011 0.1490 -0.0404
v  -0.1071 0.2516 0.0047
v  -0.0901 0.2712 -0.0404
v  0.0093 -0.1527 -0.0916
v  -0.0842 -0.2779 -0.0916
v  0.0424 -0.0000 -0.0916
v  0.0093 0.1527 -0.0916
v  -0.0842 0.2779 -0.0916
v  0.0011 -0.1490 -0.1428
v  -0.0901 -0.2712 -0.1428
v  0.0334 -0.0000 -0.1428
v  0.0011 0.1490 -0.1428
v  -0.0901 0.2712 -0.1428
v  -0.0225 -0.1383 -0.1879
v  -0.1071 -0.2516 -0.1879
v  0.0076 -0.0000 -0.1879
v  -0.0225 0.1383 -0.1879
v  -0.1071 0.2516 -0.1879
# 25 vertices

vn -0.6988 0.5218 -0.4893
vn -0.7892 0.3596 -0.4979
vn -0.8580 0.3910 -0.3332
vn -0.7574 0.5655 -0.3265
vn -0.8672 -0.0000 -0.4979
vn -0.9428 -0.0000 -0.3332
vn -0.7892 -0.3596 -0.4979
vn -0.8580 -0.3910 -0.3332
vn -0.6988 -0.5218 -0.4893
vn -0.7574 -0.5655 -0.3265
vn -0.9100 0.4147 0.0000
vn -0.8013 0.5983 -0.0000
vn -1.0000 -0.0000 -0.0000
vn -0.9100 -0.4147 0.0000
vn -0.8013 -0.5983 -0.0000
vn -0.8580 0.3910 0.3332
vn -0.7574 0.5655 0.3265
vn -0.9428 -0.0000 0.3332
vn -0.8580 -0.3910 0.3332
vn -0.7574 -0.5655 0.3265
vn -0.7892 0.3596 0.4979
vn -0.6988 0.5218 0.4893
vn -0.8672 -0.0000 0.4979
vn -0.7892 -0.3596 0.4979
vn -0.6988 -0.5218 0.4893
# 25 vertex normals

vt 0.4159 0.0000 0.0000
vt 0.4159 0.2500 0.0000
vt 0.3329 0.2500 0.0000
vt 0.3329 0.0000 0.0000
vt 0.4159 0.5000 0.0000
vt 0.3329 0.5000 0.0000
vt 0.4159 0.7500 0.0000
vt 0.3329 0.7500 0.0000
vt 0.4159 1.0000 0.0000
vt 0.3329 1.0000 0.0000
vt 0.2500 0.2500 0.0000
vt 0.2500 0.0000 0.0000
vt 0.2500 0.5000 0.0000
vt 0.2500 0.7500 0.0000
vt 0.2500 1.0000 0.0000
vt 0.1671 0.2500 0.0000
vt 0.1671 0.0000 0.0000
vt 0.1671 0.5000 0.0000
vt 0.1671 0.7500 0.0000
vt 0.1671 1.0000 0.0000
vt 0.0841 0.2500 0.0000
vt 0.0841 0.0000 0.0000
vt 0.0841 0.5000 0.0000
vt 0.0841 0.7500 0.0000
vt 0.0841 1.0000 0.0000
# 25 texture coords

g FeatherGeo_v001
s 1
f 1/1/1 2/2/2 3/3/3 
f 3/3/3 4/4/4 1/1/1 
f 2/2/2 5/5/5 6/6/6 
f 6/6/6 3/3/3 2/2/2 
f 5/5/5 7/7/7 8/8/8 
f 8/8/8 6/6/6 5/5/5 
f 7/7/7 9/9/9 10/10/10 
f 10/10/10 8/8/8 7/7/7 
f 4/4/4 3/3/3 11/11/11 
f 11/11/11 12/12/12 4/4/4 
f 3/3/3 6/6/6 13/13/13 
f 13/13/13 11/11/11 3/3/3 
f 6/6/6 8/8/8 14/14/14 
f 14/14/14 13/13/13 6/6/6 
f 8/8/8 10/10/10 15/15/15 
f 15/15/15 14/14/14 8/8/8 
f 12/12/12 11/11/11 16/16/16 
f 16/16/16 17/17/17 12/12/12 
f 11/11/11 13/13/13 18/18/18 
f 18/18/18 16/16/16 11/11/11 
f 13/13/13 14/14/14 19/19/19 
f 19/19/19 18/18/18 13/13/13 
f 14/14/14 15/15/15 20/20/20 
f 20/20/20 19/19/19 14/14/14 
f 17/17/17 16/16/16 21/21/21 
f 21/21/21 22/22/22 17/17/17 
f 16/16/16 18/18/18 23/23/23 
f 23/23/23 21/21/21 16/16/16 
f 18/18/18 19/19/19 24/24/24 
f 24/24/24 23/23/23 18/18/18 
f 19/19/19 20/20/20 25/25/25 
f 25/25/25 24/24/24 19/19/19 
# 32 faces

